<svg xmlns="http://www.w3.org/2000/svg" width="1200" height="630" viewBox="0 0 1200 630">
  <defs>
    <linearGradient id="bgGrad2" x1="0%" y1="0%" x2="100%" y2="100%">
      <stop offset="0%" style="stop-color:#1e3a8a"/>
      <stop offset="50%" style="stop-color:#3730a3"/>
      <stop offset="100%" style="stop-color:#6366f1"/>
    </linearGradient>
  </defs>

  <!-- Background -->
  <rect width="1200" height="630" fill="url(#bgGrad2)"/>

  <!-- Grid pattern -->
  <g fill="rgba(255,255,255,0.03)">
    <rect x="0" y="0" width="100" height="100"/>
    <rect x="200" y="100" width="100" height="100"/>
    <rect x="400" y="0" width="100" height="100"/>
    <rect x="600" y="100" width="100" height="100"/>
    <rect x="800" y="0" width="100" height="100"/>
    <rect x="1000" y="100" width="100" height="100"/>
    <rect x="100" y="430" width="100" height="100"/>
    <rect x="300" y="530" width="100" height="100"/>
    <rect x="500" y="430" width="100" height="100"/>
    <rect x="700" y="530" width="100" height="100"/>
    <rect x="900" y="430" width="100" height="100"/>
    <rect x="1100" y="530" width="100" height="100"/>
  </g>

  <!-- Course icons -->
  <g transform="translate(200, 200)">
    <rect width="180" height="140" rx="12" fill="rgba(255,255,255,0.1)" stroke="rgba(255,255,255,0.2)" stroke-width="2"/>
    <rect x="15" y="15" width="150" height="80" rx="6" fill="rgba(99,102,241,0.3)"/>
    <rect x="15" y="105" width="100" height="10" rx="4" fill="rgba(255,255,255,0.4)"/>
    <rect x="15" y="120" width="60" height="8" rx="3" fill="rgba(255,255,255,0.2)"/>
  </g>

  <g transform="translate(510, 200)">
    <rect width="180" height="140" rx="12" fill="rgba(255,255,255,0.1)" stroke="rgba(255,255,255,0.2)" stroke-width="2"/>
    <rect x="15" y="15" width="150" height="80" rx="6" fill="rgba(139,92,246,0.3)"/>
    <rect x="15" y="105" width="100" height="10" rx="4" fill="rgba(255,255,255,0.4)"/>
    <rect x="15" y="120" width="60" height="8" rx="3" fill="rgba(255,255,255,0.2)"/>
  </g>

  <g transform="translate(820, 200)">
    <rect width="180" height="140" rx="12" fill="rgba(255,255,255,0.1)" stroke="rgba(255,255,255,0.2)" stroke-width="2"/>
    <rect x="15" y="15" width="150" height="80" rx="6" fill="rgba(236,72,153,0.3)"/>
    <rect x="15" y="105" width="100" height="10" rx="4" fill="rgba(255,255,255,0.4)"/>
    <rect x="15" y="120" width="60" height="8" rx="3" fill="rgba(255,255,255,0.2)"/>
  </g>

  <!-- Title -->
  <text x="600" y="450" font-family="Arial, sans-serif" font-size="56" font-weight="bold" fill="white" text-anchor="middle">Explore Our Course Catalog</text>

  <!-- Subtitle -->
  <text x="600" y="510" font-family="Arial, sans-serif" font-size="26" fill="rgba(255,255,255,0.8)" text-anchor="middle">AI-Powered Adaptive Learning | Expert-Led Courses | Industry Certificates</text>

  <!-- Taxomind branding -->
  <text x="600" y="580" font-family="Arial, sans-serif" font-size="20" fill="rgba(255,255,255,0.5)" text-anchor="middle">taxomind.com</text>
</svg>
